<!DOCTYPE svg PUBLIC "-//W3C//DTD SVG 1.1//EN" "http://www.w3.org/Graphics/SVG/1.1/DTD/svg11.dtd">
<!-- Uploaded to: SVG Repo, www.svgrepo.com, Transformed by: SVG Repo Mixer Tools -->
<svg fill="#ff5c5c" version="1.1" id="Capa_1" xmlns="http://www.w3.org/2000/svg" xmlns:xlink="http://www.w3.org/1999/xlink" width="64px" height="64px" viewBox="0 0 421.95 421.95" xml:space="preserve" stroke="#ff5c5c">
<g id="SVGRepo_bgCarrier" stroke-width="0"/>
<g id="SVGRepo_tracerCarrier" stroke-linecap="round" stroke-linejoin="round"/>
<g id="SVGRepo_iconCarrier"> <g> <g> <g id="Layer_5_46_"> <g> <path d="M266.146,183.011c38.797,11.465,26.51-50.785-4.785-24.51c-1.541,1.295-2.043,1.016-0.678-0.635 c25.672-30.996-38.6-42.023-24.368-2.543c0.334,0.926,0.014,1.045-0.517,0.16c-22.221-37.119-54.038,23.451-11.018,21.551 c1.808-0.08,1.918,0.344,0.174,0.746c-40.99,9.488,11.184,56.52,17.734,17.27c0.306-1.828,0.551-1.553,0.616,0.41 c1.252,36.951,55.334,5.959,22.626-11.701C263.967,182.697,264.003,182.376,266.146,183.011z M254.688,176.291 c-2.128-0.32-2.822,0.832-1.546,2.564c1.275,1.73,1.491,3.76,0.478,4.508s-2.891-0.055-4.167-1.785s-2.585-1.408-2.906,0.719 c-0.319,2.127-1.604,3.715-2.851,3.525c-1.247-0.188-2.005-2.082-1.685-4.209s-0.833-2.822-2.562-1.545 c-1.73,1.277-3.76,1.492-4.509,0.477c-0.749-1.014,0.055-2.889,1.785-4.166c1.729-1.277,1.406-2.586-0.722-2.906 c-2.127-0.32-3.713-1.604-3.523-2.852c0.188-1.246,2.082-2.004,4.21-1.684c2.127,0.32,2.821-0.832,1.545-2.563 c-1.277-1.732-1.491-3.76-0.478-4.51c1.016-0.748,2.891,0.055,4.167,1.787c1.276,1.73,2.584,1.406,2.904-0.721 c0.321-2.127,1.604-3.713,2.852-3.525s2.006,2.082,1.685,4.209c-0.32,2.127,0.833,2.822,2.563,1.545 c1.729-1.277,3.761-1.492,4.508-0.477c0.749,1.016-0.055,2.891-1.784,4.168c-1.73,1.275-1.407,2.584,0.72,2.904 c2.128,0.32,3.714,1.604,3.525,2.852C258.708,175.854,256.815,176.611,254.688,176.291z"/> <path d="M133.503,323.326c30.992,9.156,21.178-40.568-3.822-19.578c-1.231,1.033-1.633,0.811-0.541-0.508 c20.507-24.764-30.834-33.57-19.467-2.031c0.267,0.74,0.011,0.836-0.412,0.129c-17.75-29.654-43.168,18.732-8.8,17.215 c1.442-0.062,1.532,0.273,0.138,0.596c-32.745,7.578,8.934,45.15,14.168,13.797c0.244-1.463,0.439-1.24,0.492,0.326 c1.001,29.52,44.203,4.764,18.075-9.348C131.764,323.074,131.792,322.82,133.503,323.326z M124.352,317.956 c-1.699-0.256-2.254,0.666-1.234,2.049c1.021,1.383,1.191,3.004,0.381,3.602c-0.81,0.6-2.309-0.043-3.329-1.426 s-2.064-1.125-2.32,0.574c-0.257,1.699-1.281,2.967-2.277,2.816c-0.996-0.151-1.602-1.664-1.346-3.363 c0.257-1.699-0.665-2.254-2.048-1.234c-1.382,1.021-3.003,1.191-3.601,0.381c-0.599-0.811,0.043-2.309,1.426-3.326 c1.383-1.021,1.124-2.064-0.575-2.32c-1.699-0.258-2.966-1.281-2.816-2.277c0.15-0.996,1.664-1.602,3.362-1.346 c1.699,0.256,2.255-0.666,1.234-2.049c-1.02-1.384-1.191-3.002-0.381-3.604c0.811-0.598,2.309,0.045,3.329,1.43 c1.02,1.383,2.064,1.122,2.321-0.576c0.256-1.699,1.281-2.968,2.277-2.816s1.602,1.664,1.345,3.363 c-0.256,1.699,0.665,2.254,2.048,1.232c1.383-1.02,3.004-1.189,3.602-0.381c0.599,0.812-0.043,2.311-1.426,3.328 c-1.383,1.021-1.124,2.064,0.575,2.322c1.699,0.256,2.966,1.281,2.815,2.277C127.562,317.607,126.05,318.214,124.352,317.956z"/> <path d="M330.852,237.12c31.347,9.264,21.419-41.029-3.864-19.802c-1.246,1.046-1.649,0.819-0.548-0.513 c20.74-25.043-31.185-33.952-19.688-2.057c0.271,0.748,0.011,0.846-0.417,0.131c-17.951-29.989-43.66,18.945-8.9,17.41 c1.46-0.064,1.551,0.276,0.142,0.604c-33.117,7.664,9.034,45.664,14.328,13.951c0.246-1.477,0.443-1.254,0.498,0.332 c1.013,29.854,44.705,4.814,18.279-9.453C329.09,236.867,329.121,236.609,330.852,237.12z M321.595,231.69 c-1.718-0.258-2.279,0.676-1.248,2.072c1.031,1.398,1.205,3.037,0.386,3.645c-0.818,0.604-2.335-0.045-3.366-1.443 c-1.031-1.397-2.089-1.137-2.348,0.582c-0.261,1.719-1.297,3-2.304,2.848c-1.008-0.15-1.62-1.682-1.36-3.398 c0.26-1.72-0.674-2.279-2.071-1.248s-3.036,1.205-3.643,0.385c-0.605-0.82,0.043-2.334,1.441-3.367 c1.397-1.03,1.137-2.088-0.581-2.348c-1.72-0.258-3-1.295-2.85-2.303c0.151-1.01,1.684-1.619,3.4-1.359 c1.719,0.258,2.28-0.674,1.248-2.072c-1.032-1.396-1.205-3.037-0.386-3.643c0.819-0.606,2.336,0.045,3.366,1.441 c1.031,1.398,2.089,1.139,2.349-0.581c0.259-1.72,1.296-3,2.303-2.849c1.009,0.152,1.62,1.683,1.361,3.4 c-0.261,1.719,0.672,2.277,2.069,1.248c1.397-1.031,3.038-1.205,3.644-0.387c0.604,0.82-0.044,2.334-1.441,3.367 c-1.397,1.031-1.138,2.088,0.582,2.347c1.718,0.261,3,1.298,2.849,2.306C324.844,231.339,323.313,231.951,321.595,231.69z"/> <path d="M399.03,124.963c36.632,10.826,25.031-47.951-4.519-23.141c-1.456,1.223-1.93,0.959-0.64-0.6 c24.238-29.268-36.444-39.678-23.01-2.402c0.314,0.875,0.014,0.988-0.486,0.152c-20.98-35.049-51.024,22.143-10.401,20.348 c1.705-0.074,1.812,0.324,0.163,0.705c-38.703,8.959,10.56,53.367,16.745,16.307c0.288-1.729,0.521-1.467,0.583,0.387 c1.184,34.889,52.246,5.627,21.363-11.049C396.972,124.666,397.006,124.365,399.03,124.963z M386.777,117.714 c-1.693-0.256-2.249,0.664-1.23,2.043s1.188,2.996,0.381,3.594c-0.811,0.596-2.304-0.045-3.32-1.424 c-1.018-1.379-2.061-1.121-2.314,0.574c-0.255,1.695-1.278,2.959-2.271,2.809c-0.994-0.15-1.599-1.658-1.343-3.354 c0.255-1.695-0.664-2.25-2.043-1.232c-1.38,1.018-2.996,1.189-3.594,0.381c-0.597-0.809,0.044-2.303,1.424-3.32 c1.379-1.018,1.121-2.061-0.574-2.316c-1.694-0.255-2.959-1.277-2.81-2.271c0.149-0.994,1.658-1.598,3.354-1.342 c1.694,0.256,2.249-0.664,1.23-2.043s-1.188-2.996-0.38-3.592c0.809-0.598,2.303,0.043,3.319,1.422 c1.018,1.379,2.061,1.121,2.314-0.574c0.255-1.695,1.277-2.959,2.271-2.809c0.993,0.15,1.599,1.66,1.342,3.354 c-0.256,1.695,0.663,2.25,2.044,1.232c1.379-1.018,2.995-1.189,3.592-0.381c0.598,0.809-0.043,2.305-1.422,3.322 c-1.38,1.018-1.121,2.059,0.572,2.314c1.694,0.256,2.959,1.277,2.811,2.271C389.981,117.367,388.473,117.97,386.777,117.714z"/> <path d="M343.035,152.609c1.392-1.074,0.66-1.727,0.274-2.146c-3.893-4.242-6.592-9.471-7.213-14.904 c-0.015-0.129-0.028-0.268-0.043-0.414c-0.049-0.549-0.379-1.734-1.869-0.834c-11.098,7.057-21.022,13.029-35.828,21.066 c-1.742,1.242-0.862,2.021-0.606,2.656c1.408,3.504,2.149,7.303,2.15,11.064c0,2.623-0.335,5.102-0.964,7.406 c-0.158,0.586,0.177,1.344,2.032,0.371C318.581,167.65,330.071,160.775,343.035,152.609z"/> <g> <path d="M367.451,207.882c-4.324,1.496-5.668,2.109-9.858,3.464c-2.229,0.688-0.92,1.984-0.54,2.718 c1.432,2.76,2.349,5.807,2.704,8.9c0.058,0.494,0.045,1.506,1.262,1.09c3.918-1.34,6.967-2.447,10.79-3.891 c0.432-0.162,1.39-0.629,1.013-1.326l-3.989-10.512C368.828,208.329,368.571,207.495,367.451,207.882z"/> <path d="M273.482,230.841c-0.854-1.481-1.503-3.07-1.953-4.725c-0.142-0.52-0.249-1.604-1.745-1.604 c-11.547-0.225-20.518-1.18-29.364-2.473c-11.593-1.691-20.137-3.607-28.212-5.895c-0.843-0.404-0.765-0.621,0.172-0.938 c0.858-0.365-0.06-1.246-0.65-1.707c-5.169-4.012-9.199-9.549-10.915-15.557c-0.195-0.682-0.531-1.961-2.748-1.486 c-58.277,15.138-122.495,20.355-190.06-0.385c0,0-5.059-1.084-5.659,4.293c-0.458,4.098-1.37,11.629-2.187,18.016 c-0.962,7.525,2.715,7.896,2.715,7.896c15.997,4.908,26.146,6.945,43.261,8.943c2.468,0.146,4.192,1.236,4.872,1.711 c12.205,8.557,28.721,22.604,41.261,44.938c0.555,0.857,1.189,0.564,1.588,0.514c0.816-0.105,1.643-0.168,2.476-0.168 c1.188,0,2.489,0.102,3.865,0.383c0.433,0.088,0.636,0.021,0.808-0.258c0.461-0.746,0.849-1.479,1.294-2.113 c1.538-2.188,3.013-3.697,5.26-5.105c0.556-0.371,0.261-0.838,0.154-1.104c-6-14.855-13.342-26.756-21.438-35.025 c-0.457-0.465-1.036-1.086,0.464-1.369c17.842,0,34.335-1.461,53.072-4.398c8.768-1.375,17.636-3.09,26.584-5.107 c0.988-0.225,2.219-0.416,4.707-0.416c19.428,2.957,45.935,6.896,66.393,9.93c10.506,1.557,22.952,2.639,37.077,2.689 c1.375-0.018,1.505-0.611,1.587-0.92c0.246-0.932,0.565-1.855,0.976-2.77c0.128-0.285,0.021-1.098-0.771-1.982 C275.117,233.255,274.134,231.968,273.482,230.841z"/> </g> </g> </g> </g> </g> </g>
</svg>