<!DOCTYPE svg PUBLIC "-//W3C//DTD SVG 1.1//EN" "http://www.w3.org/Graphics/SVG/1.1/DTD/svg11.dtd">
<!-- Uploaded to: SVG Repo, www.svgrepo.com, Transformed by: SVG Repo Mixer Tools -->
<svg width="64px" height="64px" viewBox="0 0 32 32" fill="none" xmlns="http://www.w3.org/2000/svg">
<g id="SVGRepo_bgCarrier" stroke-width="0"/>
<g id="SVGRepo_tracerCarrier" stroke-linecap="round" stroke-linejoin="round"/>
<g id="SVGRepo_iconCarrier"> <g clip-path="url(#clip0_901_2965)"> <path d="M30.7227 13.7542L18.2327 1.26422C17.8427 0.874224 17.2727 0.934224 16.8827 1.32422L1.30269 16.6842C0.912692 17.0742 0.892692 17.8642 1.28269 18.2542L13.7327 30.7042C14.1227 31.0942 14.7627 31.1042 15.1527 30.7142L30.7127 15.1542C31.1027 14.7642 31.1127 14.1442 30.7227 13.7542Z" fill="#FFC44D"/> <path d="M24.001 27.0055H31.001M29.001 23.0055H31.001M6.00101 18.0055H17.001C17.532 18.0055 18.001 17.5685 18.001 17.0055V7.00548M14.001 22.0055V25.0055M25.001 14.0055H22.001M30.7207 13.7545C31.1117 14.1455 31.0997 14.7665 30.7087 15.1565L15.1527 30.7135C14.7617 31.1045 14.1247 31.1005 13.7347 30.7095L1.28171 18.2565C0.890709 17.8655 0.914709 17.0755 1.30571 16.6855L16.8807 1.32848C17.2717 0.938476 17.8377 0.871476 18.2287 1.26248L30.7207 13.7545Z" stroke="#000000" stroke-width="2" stroke-linecap="round" stroke-linejoin="round"/> </g> <defs> <clipPath id="clip0_901_2965"> <rect width="32" height="32" fill="white"/> </clipPath> </defs> </g>
</svg>