<!DOCTYPE svg PUBLIC "-//W3C//DTD SVG 1.1//EN" "http://www.w3.org/Graphics/SVG/1.1/DTD/svg11.dtd">
<!-- Uploaded to: SVG Repo, www.svgrepo.com, Transformed by: SVG Repo Mixer Tools -->
<svg version="1.1" id="Layer_1" xmlns="http://www.w3.org/2000/svg" xmlns:xlink="http://www.w3.org/1999/xlink" viewBox="0 0 512 512" xml:space="preserve" width="100px" height="100px" fill="#000000">
<g id="SVGRepo_bgCarrier" stroke-width="0"/>
<g id="SVGRepo_tracerCarrier" stroke-linecap="round" stroke-linejoin="round"/>
<g id="SVGRepo_iconCarrier"> <path d="M384,512H128c-8.448,0-15.36-6.912-15.36-15.36V15.36C112.64,6.912,119.552,0,128,0h256c8.448,0,15.36,6.912,15.36,15.36 v481.28C399.36,505.088,392.448,512,384,512z"/> <g> <path style="fill:#C9C9C9;" d="M286.72,481.28h-61.44c-2.816,0-5.12-2.304-5.12-5.12l0,0c0-2.816,2.304-5.12,5.12-5.12h61.44 c2.816,0,5.12,2.304,5.12,5.12l0,0C291.84,478.976,289.536,481.28,286.72,481.28z"/> <path style="fill:#C9C9C9;" d="M252.88,25.76h-45.44c-2.816,0-5.12-2.304-5.12-5.12l0,0c0-2.816,2.304-5.12,5.12-5.12h45.44 c2.816,0,5.12,2.304,5.12,5.12l0,0C258,23.456,255.696,25.76,252.88,25.76z"/> <circle style="fill:#C9C9C9;" cx="286.928" cy="20.648" r="5.128"/> <circle style="fill:#C9C9C9;" cx="304.56" cy="20.648" r="5.128"/> </g> <rect x="128" y="40.96" style="fill:#FFFFFF;" width="256" height="409.6"/> <polygon style="fill:#E50914;" points="170.96,194.024 207.128,157.16 207.128,246.128 240.856,246.128 240.856,157.152 277.016,194.024 301.088,170.544 223.992,91.928 146.888,170.544 "/> <polygon points="341.04,298.232 304.872,335.104 304.872,246.128 271.144,246.128 271.144,335.104 234.984,298.232 210.912,321.72 288.008,400.328 365.112,321.72 "/> </g>
</svg>